<svg width="14" height="12" viewBox="0 0 14 12" fill="none" xmlns="http://www.w3.org/2000/svg">
<path opacity="0.32" d="M10.7799 1.66799L11.276 0.851856C11.3265 0.765182 11.2758 0.660193 11.1831 0.643405L9.92633 0.415993L9.33375 1.38017L8.77708 1.27944L9.25174 0.485556C9.30226 0.398882 9.25158 0.293893 9.1588 0.277104L7.90206 0.0496924L7.32635 1.01692L3.38746 0.304163C3.21034 0.272111 3.02333 0.3428 2.90308 0.477831L1.6118 2.02985L8.95821 3.35921C9.20281 3.40347 9.43134 3.48838 9.64229 3.62237C10.0488 3.87886 10.4901 4.37681 10.1903 5.26331C9.70317 6.75179 7.65439 9.16846 4.27298 8.60013L6.84004 4.37833C6.94109 4.20498 6.84124 3.98657 6.63882 3.94994L4.30247 3.52717L0.222353 9.94899C0.222353 9.94899 0.775251 10.1187 1.6693 10.2805L1.25127 10.954L2.54174 11.1875C2.64296 11.2058 2.74642 11.1636 2.79847 11.0685L3.15602 10.4886C3.35306 10.5068 3.5432 10.5151 3.74868 10.5348L3.27554 11.3203L4.56601 11.5538C4.66723 11.5721 4.77069 11.5299 4.82274 11.4348L5.36632 10.5488C7.57037 10.4511 10.0216 9.80587 11.7794 7.84177C15.3096 3.88136 12.6916 2.22298 10.7799 1.66799Z" fill="#F49F1C"/>
</svg>
