<svg width="112" height="84" viewBox="0 0 112 84" fill="none" xmlns="http://www.w3.org/2000/svg">
<path opacity="0.1" d="M0.613171 25.4098C0.613171 28.5966 2.87659 30.8728 6.04537 30.8728H87.5283V41.7988C87.5283 46.8066 93.1868 49.0828 96.582 45.6685L114.689 27.4584C116.953 25.4098 116.953 21.9954 114.689 19.9468L96.582 1.73679C93.1868 -1.90521 87.5283 0.598669 87.5283 5.3788V16.3048H6.04537C2.87659 16.3048 0.613171 18.8087 0.613171 21.7678V25.4098ZM111.068 60.0088H29.5849V49.0828C29.5849 44.3027 23.7 41.7988 20.3049 45.4408L2.19756 63.6509C-0.0658537 65.6995 -0.0658537 69.1139 2.19756 71.1625L20.3049 89.3725C23.7 92.7869 29.5849 90.5106 29.5849 85.5029V74.5769H111.068C114.01 74.5769 116.5 72.3006 116.5 69.1139V65.4719C116.5 62.5127 114.01 60.0088 111.068 60.0088Z" fill="white"/>
</svg>
