<svg width="83" height="60" viewBox="0 0 83 60" fill="none" xmlns="http://www.w3.org/2000/svg">
<path opacity="0.1" d="M103.1 0H5.9C2.8625 0 0.5 2.54464 0.5 5.42857V70.5714C0.5 73.625 2.8625 76 5.9 76H103.1C105.969 76 108.5 73.625 108.5 70.5714V5.42857C108.5 2.54464 105.969 0 103.1 0ZM30.2 50.2143V52.9286C30.2 53.7768 29.525 54.2857 28.85 54.2857H26.15C25.3063 54.2857 24.8 53.7768 24.8 52.9286V50.2143C22.775 50.2143 20.9188 49.5357 19.4 48.3482C18.725 47.8393 18.725 46.8214 19.4 46.3125L21.2563 44.4464C21.7625 43.9375 22.4375 43.9375 22.9438 44.2768C23.6188 44.6161 24.4625 44.7857 25.1375 44.7857H29.8625C31.0438 44.7857 31.8875 43.9375 31.8875 42.5804C31.8875 41.5625 31.3813 40.7143 30.3688 40.5446L22.775 38.1696C19.7375 37.1518 17.5438 34.2679 17.5438 30.875C17.5438 26.6339 20.75 23.2411 24.6313 23.2411V20.3571C24.6313 19.6786 25.3063 19 25.9813 19H28.6813C29.525 19 30.0313 19.6786 30.0313 20.3571V23.2411C32.0563 23.2411 33.9125 23.9196 35.4313 25.1071C36.1063 25.6161 36.1063 26.6339 35.4313 27.1429L33.575 29.0089C33.0688 29.5179 32.3938 29.5179 31.8875 29.1786C31.2125 28.8393 30.3688 28.5 29.6938 28.5H24.9688C23.7875 28.5 22.9438 29.5179 22.9438 30.875C22.9438 31.8929 23.45 32.7411 24.4625 32.9107L32.0563 35.2857C35.0938 36.1339 37.2875 39.1875 37.2875 42.5804C37.2875 46.8214 34.0813 50.2143 30.2 50.2143ZM70.7 47.5C70.7 48.3482 70.025 48.8571 69.35 48.8571H50.45C49.6063 48.8571 49.1 48.3482 49.1 47.5V44.7857C49.1 44.1071 49.6063 43.4286 50.45 43.4286H69.35C70.025 43.4286 70.7 44.1071 70.7 44.7857V47.5ZM97.7 47.5C97.7 48.3482 97.025 48.8571 96.35 48.8571H82.85C82.0063 48.8571 81.5 48.3482 81.5 47.5V44.7857C81.5 44.1071 82.0063 43.4286 82.85 43.4286H96.35C97.025 43.4286 97.7 44.1071 97.7 44.7857V47.5ZM97.7 31.2143C97.7 32.0625 97.025 32.5714 96.35 32.5714H50.45C49.6063 32.5714 49.1 32.0625 49.1 31.2143V28.5C49.1 27.8214 49.6063 27.1429 50.45 27.1429H96.35C97.025 27.1429 97.7 27.8214 97.7 28.5V31.2143Z" fill="white"/>
</svg>
