<svg width="106" height="71" viewBox="0 0 106 71" fill="none" xmlns="http://www.w3.org/2000/svg">
<path opacity="0.1" d="M19.7 38.5714C26.7 38.5714 32.5 32.9464 32.5 25.7143C32.5 18.683 26.7 12.8571 19.7 12.8571C12.5 12.8571 6.9 18.683 6.9 25.7143C6.9 32.9464 12.5 38.5714 19.7 38.5714ZM109.3 38.5714C116.3 38.5714 122.1 32.9464 122.1 25.7143C122.1 18.683 116.3 12.8571 109.3 12.8571C102.1 12.8571 96.5 18.683 96.5 25.7143C96.5 32.9464 102.1 38.5714 109.3 38.5714ZM115.7 45H102.9C99.3 45 96.1 46.6071 93.7 48.817C101.9 53.2366 107.5 61.2723 108.9 70.7143H122.1C125.5 70.7143 128.5 67.9018 128.5 64.2857V57.8571C128.5 50.8259 122.7 45 115.7 45ZM64.5 45C76.7 45 86.9 34.9554 86.9 22.5C86.9 10.2455 76.7 0 64.5 0C52.1 0 42.1 10.2455 42.1 22.5C42.1 34.9554 52.1 45 64.5 45ZM79.7 51.4286H78.1C73.9 53.4375 69.3 54.6429 64.5 54.6429C59.5 54.6429 54.9 53.4375 50.7 51.4286H49.1C36.3 51.4286 26.1 61.875 26.1 74.7321V80.3571C26.1 85.7813 30.3 90 35.7 90H93.3C98.5 90 102.9 85.7813 102.9 80.3571V74.7321C102.9 61.875 92.5 51.4286 79.7 51.4286ZM35.1 48.817C32.7 46.6071 29.5 45 26.1 45H13.3C6.1 45 0.5 50.8259 0.5 57.8571V64.2857C0.5 67.9018 3.3 70.7143 6.9 70.7143H19.9C21.3 61.2723 26.9 53.2366 35.1 48.817Z" fill="white"/>
</svg>
