<svg width="94" height="61" viewBox="0 0 94 61" fill="none" xmlns="http://www.w3.org/2000/svg">
<path opacity="0.1" d="M124 0H7C3.34375 0 0.5 3.04688 0.5 6.5V71.5C0.5 75.1563 3.34375 78 7 78H124C127.453 78 130.5 75.1563 130.5 71.5V6.5C130.5 3.04688 127.453 0 124 0ZM10.25 68.25V55.25C17.3594 55.25 23.25 61.1406 23.25 68.25H10.25ZM10.25 22.75V9.75H23.25C23.25 17.0625 17.3594 22.75 10.25 22.75ZM65.5 58.5C56.3594 58.5 49.25 49.9688 49.25 39C49.25 28.2344 56.3594 19.5 65.5 19.5C74.4375 19.5 81.75 28.2344 81.75 39C81.75 49.9688 74.4375 58.5 65.5 58.5ZM120.75 68.25H107.75C107.75 61.1406 113.438 55.25 120.75 55.25V68.25ZM120.75 22.75C113.438 22.75 107.75 17.0625 107.75 9.75H120.75V22.75Z" fill="white"/>
</svg>
